<svg width="1008" height="650" viewBox="0 0 1008 650" fill="none" xmlns="http://www.w3.org/2000/svg">
<path d="M492.098 519C446.431 519 412.598 503.167 390.598 471.5C368.598 439.833 357.598 395.5 357.598 338.5C357.598 281.5 368.598 237.167 390.598 205.5C412.598 173.833 446.431 158 492.098 158C537.764 158 571.598 173.833 593.598 205.5C615.598 237.167 626.598 281.5 626.598 338.5C626.598 395.5 615.598 439.833 593.598 471.5C571.598 503.167 537.764 519 492.098 519ZM492.098 455.5C512.098 455.5 525.931 448.167 533.598 433.5C541.264 418.833 545.098 398.167 545.098 371.5V305.5C545.098 278.833 541.264 258.167 533.598 243.5C525.931 228.833 512.098 221.5 492.098 221.5C472.098 221.5 458.264 228.833 450.598 243.5C442.931 258.167 439.098 278.833 439.098 305.5V371.5C439.098 398.167 442.931 418.833 450.598 433.5C458.264 448.167 472.098 455.5 492.098 455.5Z" fill="#F6F3EE" fill-opacity="0.1"/>
<path d="M390.598 471.5L392.24 470.359L390.598 471.5ZM390.598 205.5L392.24 206.641L390.598 205.5ZM593.598 205.5L591.955 206.641L593.598 205.5ZM593.598 471.5L595.24 472.641L593.598 471.5ZM533.598 433.5L531.825 432.573L533.598 433.5ZM533.598 243.5L535.37 242.573L533.598 243.5ZM450.598 243.5L448.825 242.573L450.598 243.5ZM450.598 433.5L452.37 432.573L450.598 433.5ZM492.098 517C446.948 517 413.794 501.383 392.24 470.359L388.955 472.641C411.401 504.95 445.914 521 492.098 521V517ZM392.24 470.359C370.56 439.152 359.598 395.277 359.598 338.5H355.598C355.598 395.723 366.635 440.514 388.955 472.641L392.24 470.359ZM359.598 338.5C359.598 281.723 370.56 237.848 392.24 206.641L388.955 204.359C366.635 236.486 355.598 281.277 355.598 338.5H359.598ZM392.24 206.641C413.794 175.617 446.948 160 492.098 160V156C445.914 156 411.401 172.05 388.955 204.359L392.24 206.641ZM492.098 160C537.247 160 570.401 175.617 591.955 206.641L595.24 204.359C572.794 172.05 538.281 156 492.098 156V160ZM591.955 206.641C613.635 237.848 624.598 281.723 624.598 338.5H628.598C628.598 281.277 617.56 236.486 595.24 204.359L591.955 206.641ZM624.598 338.5C624.598 395.277 613.635 439.152 591.955 470.359L595.24 472.641C617.56 440.514 628.598 395.723 628.598 338.5H624.598ZM591.955 470.359C570.401 501.383 537.247 517 492.098 517V521C538.281 521 572.794 504.95 595.24 472.641L591.955 470.359ZM492.098 457.5C512.656 457.5 527.28 449.903 535.37 434.427L531.825 432.573C524.582 446.43 511.539 453.5 492.098 453.5V457.5ZM535.37 434.427C543.251 419.351 547.098 398.313 547.098 371.5H543.098C543.098 398.02 539.278 418.316 531.825 432.573L535.37 434.427ZM547.098 371.5V305.5H543.098V371.5H547.098ZM547.098 305.5C547.098 278.687 543.251 257.649 535.37 242.573L531.825 244.426C539.278 258.684 543.098 278.98 543.098 305.5H547.098ZM535.37 242.573C527.28 227.097 512.656 219.5 492.098 219.5V223.5C511.539 223.5 524.582 230.57 531.825 244.426L535.37 242.573ZM492.098 219.5C471.539 219.5 456.915 227.097 448.825 242.573L452.37 244.426C459.613 230.57 472.656 223.5 492.098 223.5V219.5ZM448.825 242.573C440.945 257.649 437.098 278.687 437.098 305.5H441.098C441.098 278.98 444.917 258.684 452.37 244.426L448.825 242.573ZM437.098 305.5V371.5H441.098V305.5H437.098ZM437.098 371.5C437.098 398.313 440.945 419.351 448.825 434.427L452.37 432.573C444.917 418.316 441.098 398.02 441.098 371.5H437.098ZM448.825 434.427C456.915 449.903 471.539 457.5 492.098 457.5V453.5C472.656 453.5 459.613 446.43 452.37 432.573L448.825 434.427Z" fill="white"/>
<path d="M168.598 513V446H15.0977L15.0977 382L151.098 164H240.098L240.098 388H284.098V446H240.098V513H168.598ZM75.0977 388H168.598L168.598 241.5H163.598L75.0977 388Z" fill="#F6F3EE" fill-opacity="0.1"/>
<path d="M168.598 513H166.598V515H168.598V513ZM168.598 446H170.598V444H168.598V446ZM15.0977 446H13.0977L13.0977 448H15.0977L15.0977 446ZM15.0977 382L13.4008 380.941L13.0977 381.427V382H15.0977ZM151.098 164V162H149.988L149.401 162.941L151.098 164ZM240.098 164H242.098V162H240.098V164ZM240.098 388H238.098V390H240.098V388ZM284.098 388H286.098V386H284.098V388ZM284.098 446V448H286.098V446H284.098ZM240.098 446V444H238.098V446H240.098ZM240.098 513V515H242.098V513H240.098ZM75.0977 388L73.3858 386.966L71.5529 390H75.0977V388ZM168.598 388V390H170.598V388H168.598ZM168.598 241.5H170.598V239.5H168.598V241.5ZM163.598 241.5V239.5H162.469L161.886 240.466L163.598 241.5ZM170.598 513V446H166.598V513H170.598ZM168.598 444H15.0977L15.0977 448H168.598V444ZM17.0977 446L17.0977 382H13.0977L13.0977 446H17.0977ZM16.7945 383.059L152.795 165.059L149.401 162.941L13.4008 380.941L16.7945 383.059ZM151.098 166H240.098V162H151.098V166ZM238.098 164L238.098 388H242.098L242.098 164H238.098ZM240.098 390H284.098V386H240.098V390ZM282.098 388V446H286.098V388H282.098ZM284.098 444H240.098V448H284.098V444ZM238.098 446V513H242.098V446H238.098ZM240.098 511L168.598 511V515H240.098V511ZM75.0977 390H168.598V386H75.0977V390ZM170.598 388L170.598 241.5H166.598L166.598 388H170.598ZM168.598 239.5H163.598V243.5H168.598V239.5ZM161.886 240.466L73.3858 386.966L76.8095 389.034L165.31 242.534L161.886 240.466Z" fill="white"/>
<path d="M876.598 513V446H723.098V382L859.098 164H948.098V388H992.098V446H948.098V513H876.598ZM783.098 388H876.598V241.5H871.598L783.098 388Z" fill="#F6F3EE" fill-opacity="0.1"/>
<path d="M876.598 513H874.598V515H876.598V513ZM876.598 446H878.598V444H876.598V446ZM723.098 446H721.098V448H723.098V446ZM723.098 382L721.401 380.941L721.098 381.427V382H723.098ZM859.098 164V162H857.988L857.401 162.941L859.098 164ZM948.098 164H950.098V162H948.098V164ZM948.098 388H946.098V390H948.098V388ZM992.098 388H994.098V386H992.098V388ZM992.098 446V448H994.098V446H992.098ZM948.098 446V444H946.098V446H948.098ZM948.098 513V515H950.098V513H948.098ZM783.098 388L781.386 386.966L779.553 390H783.098V388ZM876.598 388V390H878.598V388H876.598ZM876.598 241.5H878.598V239.5H876.598V241.5ZM871.598 241.5V239.5H870.469L869.886 240.466L871.598 241.5ZM878.598 513V446H874.598V513H878.598ZM876.598 444H723.098V448H876.598V444ZM725.098 446V382H721.098V446H725.098ZM724.795 383.059L860.795 165.059L857.401 162.941L721.401 380.941L724.795 383.059ZM859.098 166H948.098V162H859.098V166ZM946.098 164V388H950.098V164H946.098ZM948.098 390H992.098V386H948.098V390ZM990.098 388V446H994.098V388H990.098ZM992.098 444H948.098V448H992.098V444ZM946.098 446V513H950.098V446H946.098ZM948.098 511L876.598 511V515H948.098V511ZM783.098 390H876.598V386H783.098V390ZM878.598 388V241.5H874.598V388H878.598ZM876.598 239.5H871.598V243.5H876.598V239.5ZM869.886 240.466L781.386 386.966L784.81 389.034L873.31 242.534L869.886 240.466Z" fill="white"/>
</svg>
