<svg width="984" height="650" viewBox="0 0 984 650" fill="none" xmlns="http://www.w3.org/2000/svg">
<path d="M168.598 513V446H15.0977L15.0977 382L151.098 164H240.098L240.098 388H284.098V446H240.098V513H168.598ZM75.0977 388H168.598L168.598 241.5H163.598L75.0977 388Z" fill="#7D6858"/>
<path d="M168.598 513H166.598V515H168.598V513ZM168.598 446H170.598V444H168.598V446ZM15.0977 446H13.0977L13.0977 448H15.0977L15.0977 446ZM15.0977 382L13.4008 380.941L13.0977 381.427V382H15.0977ZM151.098 164V162H149.988L149.401 162.941L151.098 164ZM240.098 164H242.098V162H240.098V164ZM240.098 388H238.098V390H240.098V388ZM284.098 388H286.098V386H284.098V388ZM284.098 446V448H286.098V446H284.098ZM240.098 446V444H238.098V446H240.098ZM240.098 513V515H242.098V513H240.098ZM75.0977 388L73.3858 386.966L71.5529 390H75.0977V388ZM168.598 388V390H170.598V388H168.598ZM168.598 241.5H170.598V239.5H168.598V241.5ZM163.598 241.5V239.5H162.469L161.886 240.466L163.598 241.5ZM170.598 513V446H166.598V513H170.598ZM168.598 444H15.0977L15.0977 448H168.598V444ZM17.0977 446L17.0977 382H13.0977L13.0977 446H17.0977ZM16.7945 383.059L152.795 165.059L149.401 162.941L13.4008 380.941L16.7945 383.059ZM151.098 166H240.098V162H151.098V166ZM238.098 164L238.098 388H242.098L242.098 164H238.098ZM240.098 390H284.098V386H240.098V390ZM282.098 388V446H286.098V388H282.098ZM284.098 444H240.098V448H284.098V444ZM238.098 446V513H242.098V446H238.098ZM240.098 511L168.598 511V515H240.098V511ZM75.0977 390H168.598V386H75.0977V390ZM170.598 388L170.598 241.5H166.598L166.598 388H170.598ZM168.598 239.5H163.598V243.5H168.598V239.5ZM161.886 240.466L73.3858 386.966L76.8095 389.034L165.31 242.534L161.886 240.466Z" fill="white"/>
<path d="M852.598 513V446H699.098V382L835.098 164H924.098V388H968.098V446H924.098V513H852.598ZM759.098 388H852.598V241.5H847.598L759.098 388Z" fill="#7D6858"/>
<path d="M852.598 513H850.598V515H852.598V513ZM852.598 446H854.598V444H852.598V446ZM699.098 446H697.098V448H699.098V446ZM699.098 382L697.401 380.941L697.098 381.427V382H699.098ZM835.098 164V162H833.988L833.401 162.941L835.098 164ZM924.098 164H926.098V162H924.098V164ZM924.098 388H922.098V390H924.098V388ZM968.098 388H970.098V386H968.098V388ZM968.098 446V448H970.098V446H968.098ZM924.098 446V444H922.098V446H924.098ZM924.098 513V515H926.098V513H924.098ZM759.098 388L757.386 386.966L755.553 390H759.098V388ZM852.598 388V390H854.598V388H852.598ZM852.598 241.5H854.598V239.5H852.598V241.5ZM847.598 241.5V239.5H846.469L845.886 240.466L847.598 241.5ZM854.598 513V446H850.598V513H854.598ZM852.598 444H699.098V448H852.598V444ZM701.098 446V382H697.098V446H701.098ZM700.795 383.059L836.795 165.059L833.401 162.941L697.401 380.941L700.795 383.059ZM835.098 166H924.098V162H835.098V166ZM922.098 164V388H926.098V164H922.098ZM924.098 390H968.098V386H924.098V390ZM966.098 388V446H970.098V388H966.098ZM968.098 444H924.098V448H968.098V444ZM922.098 446V513H926.098V446H922.098ZM924.098 511L852.598 511V515H924.098V511ZM759.098 390H852.598V386H759.098V390ZM854.598 388V241.5H850.598V388H854.598ZM852.598 239.5H847.598V243.5H852.598V239.5ZM845.886 240.466L757.386 386.966L760.81 389.034L849.31 242.534L845.886 240.466Z" fill="white"/>
</svg>
